<svg xmlns="http://www.w3.org/2000/svg" width="78" height="68" viewBox="0 0 78 68">
  <g id="Polygon_7" data-name="Polygon 7" fill="none">
    <path d="M29.458,16.637a11,11,0,0,1,19.084,0l20.01,34.89A11,11,0,0,1,59.01,68H18.99A11,11,0,0,1,9.448,51.527Z" stroke="none"/>
    <path d="M 39 12.11000823974609 C 35.37282180786133 12.11000823974609 32.12998962402344 13.98847198486328 30.32543182373047 17.13489151000977 L 10.31500244140625 52.02487182617188 C 8.519378662109375 55.15569305419922 8.527412414550781 58.88936233520508 10.33650207519531 62.01242065429688 C 12.14557647705078 65.13548278808594 15.38037109375 67 18.98957061767578 67 L 59.01042938232422 67 C 62.61962127685547 67 65.85440826416016 65.13549041748047 67.66349792480469 62.01243209838867 C 69.47257995605469 58.88936233520508 69.48062133789062 55.15570068359375 67.68499755859375 52.02487182617188 L 47.674560546875 17.13489151000977 C 45.86999893188477 13.98847198486328 42.62717056274414 12.11000823974609 39 12.11000823974609 M 39 11.11001586914062 C 42.71430969238281 11.11001586914062 46.42861938476562 12.95246887207031 48.54202270507812 16.63738250732422 L 68.55245971679688 51.52735900878906 C 72.75830841064453 58.86064910888672 67.46421051025391 68 59.01042938232422 68 L 18.98957061767578 68 C 10.53578948974609 68 5.241676330566406 58.86064910888672 9.447540283203125 51.52735900878906 L 29.45796966552734 16.63738250732422 C 31.57137680053711 12.95246887207031 35.28568649291992 11.11001586914062 39 11.11001586914062 Z" stroke="none" fill="#ffe7a4"/>
  </g>
</svg>
