<svg id="Group_7" data-name="Group 7" xmlns="http://www.w3.org/2000/svg" xmlns:xlink="http://www.w3.org/1999/xlink" width="55.552" height="64.863" viewBox="0 0 55.552 64.863">
  <defs>
    <clipPath id="clip-path">
      <rect id="Rectangle_19" data-name="Rectangle 19" width="55.553" height="64.863" fill="#e7dcbd"/>
    </clipPath>
  </defs>
  <g id="Group_5" data-name="Group 5" clip-path="url(#clip-path)">
    <path id="Path_1" data-name="Path 1" d="M.012,22.547C.012,18.571.021,14.6,0,10.62A.719.719,0,0,1,.558,9.8Q13.876,4.976,27.182.119A1.6,1.6,0,0,1,28.354.1q13.3,4.854,26.6,9.677a.764.764,0,0,1,.595.871c-.019,7.18-.041,14.361-.006,21.541A30.061,30.061,0,0,1,44.222,56.414a43.3,43.3,0,0,1-15.656,8.327,2.624,2.624,0,0,1-1.61-.009c-8.124-2.533-15.2-6.69-20.582-13.409A28.754,28.754,0,0,1,.283,36.843a84.579,84.579,0,0,1-.266-9.67c-.027-1.542,0-3.084,0-4.626M23.149,44.956c.141-.133.262-.241.377-.356q9.71-9.706,19.425-19.408c.258-.258.284-.4.009-.664-.835-.8-1.666-1.606-2.449-2.455-.379-.411-.583-.4-.978,0-5.265,5.295-10.558,10.562-15.817,15.862-.486.489-.717.416-1.152-.026-2.21-2.252-4.454-4.47-6.679-6.707-.228-.229-.367-.356-.661-.047-.862.908-1.753,1.79-2.655,2.658-.258.249-.225.373.013.611q5.123,5.1,10.226,10.212c.1.1.2.193.341.323" transform="translate(0 0)" fill="#e7dcbd"/>
  </g>
</svg>
