<svg xmlns="http://www.w3.org/2000/svg" width="89.933" height="97.119" viewBox="0 0 89.933 97.119">
  <g id="Polygon_2" data-name="Polygon 2" transform="matrix(0.276, 0.961, -0.961, 0.276, 67.647, 0)" fill="none">
    <path d="M38.457,11.214a2,2,0,0,1,3.94,0L47.78,41.861a2,2,0,0,0,.68,1.183L72.217,63.086a2,2,0,0,1-1.976,3.407L41.114,55.845a2,2,0,0,0-1.373,0L10.613,66.493a2,2,0,0,1-1.976-3.407L32.393,43.043a2,2,0,0,0,.68-1.183Z" stroke="none"/>
    <path d="M 40.42690658569336 10.55971527099609 C 40.28669738769531 10.55971527099609 39.58024597167969 10.59957885742188 39.44198608398438 11.38668823242188 L 34.05839538574219 42.03383255004883 C 33.93695831298828 42.72515106201172 33.57462692260742 43.35514068603516 33.03815841674805 43.80776214599609 L 9.281913757324219 63.8502197265625 C 8.81536865234375 64.24383544921875 8.890899658203125 64.69985961914062 8.977447509765625 64.93666076660156 C 9.102928161621094 65.27999114990234 9.433067321777344 65.62641143798828 9.887779235839844 65.62641143798828 C 10.00956726074219 65.62641143798828 10.13819885253906 65.60195922851562 10.27009582519531 65.55374908447266 L 39.39689636230469 54.90628051757812 C 39.7279167175293 54.78527069091797 40.07446670532227 54.72391128540039 40.42690658569336 54.72391128540039 C 40.77933502197266 54.72391128540039 41.12587738037109 54.78527069091797 41.45690536499023 54.90628051757812 L 70.58370971679688 65.55373382568359 C 70.71561431884766 65.60195159912109 70.84425354003906 65.62640380859375 70.96603393554688 65.62640380859375 C 71.420654296875 65.62640380859375 71.75076293945312 65.27995300292969 71.87626647949219 64.93659210205078 C 71.96281433105469 64.69978332519531 72.03836059570312 64.24375152587891 71.57188415527344 63.85020065307617 L 47.81565475463867 43.8077507019043 C 47.2791862487793 43.35512161254883 46.91686630249023 42.72513198852539 46.79542541503906 42.03383255004883 L 41.41182708740234 11.38670349121094 C 41.27355575561523 10.59957885742188 40.56711578369141 10.55971527099609 40.42690658569336 10.55971527099609 M 40.42690658569336 9.559715270996094 C 41.31497955322266 9.559715270996094 42.20305252075195 10.11103820800781 42.39674758911133 11.21368408203125 L 47.78034591674805 41.86082077026367 C 47.86145782470703 42.32256317138672 48.10219573974609 42.74113082885742 48.46050643920898 43.04344177246094 L 72.21672821044922 63.08588409423828 C 73.92586517333984 64.52783203125 72.34061431884766 67.26070404052734 70.24038696289062 66.49295043945312 L 41.11357498168945 55.84548950195312 C 40.67014694213867 55.68339538574219 40.18366622924805 55.68339538574219 39.74023818969727 55.84548950195312 L 10.61342620849609 66.49296569824219 C 8.513221740722656 67.26071929931641 6.927940368652344 64.52783966064453 8.6370849609375 63.08590316772461 L 32.39331817626953 43.04344177246094 C 32.75163650512695 42.74113082885742 32.99236679077148 42.32256317138672 33.0734748840332 41.86082077026367 L 38.45706558227539 11.21368408203125 C 38.65076065063477 10.11103820800781 39.53883361816406 9.559715270996094 40.42690658569336 9.559715270996094 Z" stroke="none" fill="#e7dcbd"/>
  </g>
</svg>
