<svg xmlns="http://www.w3.org/2000/svg" width="49" height="47" viewBox="0 0 49 47">
  <g id="Polygon_11" data-name="Polygon 11" fill="none">
    <path d="M22.625,5.044a2,2,0,0,1,3.749,0L30.408,15.9a2,2,0,0,0,1.785,1.3l11.513.517a2,2,0,0,1,1.163,3.557l-9.04,7.265a2,2,0,0,0-.676,2.088l3.074,11.217a2,2,0,0,1-3.038,2.193L25.609,37.65a2,2,0,0,0-2.218,0L13.81,44.034a2,2,0,0,1-3.038-2.193l3.074-11.217a2,2,0,0,0-.676-2.088L4.13,21.272a2,2,0,0,1,1.163-3.557L16.807,17.2a2,2,0,0,0,1.785-1.3Z" stroke="none"/>
    <path d="M 24.5 4.740650177001953 C 24.3369197845459 4.740650177001953 23.78738021850586 4.787639617919922 23.56265068054199 5.392257690429688 L 19.52889060974121 16.24509048461914 C 19.10832023620605 17.37663841247559 18.05734062194824 18.14276885986328 16.85139083862305 18.19688987731934 L 5.338371276855469 18.71374893188477 C 4.697460174560547 18.74252891540527 4.483158111572266 19.24776840209961 4.432750701904297 19.40192985534668 C 4.382339477539062 19.55609893798828 4.256710052490234 20.0903491973877 4.756801605224609 20.49222946166992 L 13.79666137695312 27.75697898864746 C 14.72872161865234 28.50601959228516 15.12675857543945 29.73516845703125 14.81071090698242 30.88838958740234 L 11.73661041259766 42.10498809814453 C 11.62767028808594 42.50247955322266 11.76174163818359 42.79164886474609 11.89339065551758 42.96422958374023 C 12.08747100830078 43.21865844726562 12.39860916137695 43.376708984375 12.70541000366211 43.376708984375 C 12.89596176147461 43.376708984375 13.08103942871094 43.3177604675293 13.25553894042969 43.20148849487305 L 22.83650970458984 36.81760787963867 C 23.3307991027832 36.48825073242188 23.90603065490723 36.31415939331055 24.5 36.31415939331055 C 25.09395980834961 36.31415939331055 25.66917991638184 36.48825073242188 26.16348075866699 36.81760025024414 L 35.74446868896484 43.20148849487305 C 35.91896057128906 43.3177604675293 36.10404968261719 43.376708984375 36.29458999633789 43.376708984375 C 36.6013298034668 43.376708984375 36.91246032714844 43.2186393737793 37.10655975341797 42.96417999267578 C 37.23822784423828 42.79158020019531 37.37231063842773 42.50241088867188 37.26338958740234 42.10498809814453 L 34.18928909301758 30.88838958740234 C 33.87324142456055 29.73516845703125 34.27127838134766 28.50601959228516 35.20333862304688 27.7569694519043 L 44.24319839477539 20.49223899841309 C 44.74328994750977 20.0903491973877 44.61766052246094 19.55609893798828 44.5672492980957 19.40192985534668 C 44.51683807373047 19.24776840209961 44.30253982543945 18.74252891540527 43.66162872314453 18.71374893188477 L 32.14859771728516 18.19688987731934 C 30.94264984130859 18.14274978637695 29.89167022705078 17.37661933898926 29.47109985351562 16.24509048461914 L 25.43733978271484 5.392257690429688 C 25.21261024475098 4.787639617919922 24.66307067871094 4.740650177001953 24.5 4.740650177001953 M 24.49999809265137 3.740653991699219 C 25.27588844299316 3.740653991699219 26.0517749786377 4.175060272216797 26.37468910217285 5.043869018554688 L 30.40844917297363 15.89669799804688 C 30.68824005126953 16.64946937561035 31.39118003845215 17.16187858581543 32.19345092773438 17.19789886474609 L 43.70648193359375 17.71475982666016 C 45.54840850830078 17.79744911193848 46.30681991577148 20.11672973632812 44.86962127685547 21.27171897888184 L 35.82975769042969 28.53645896911621 C 35.20870971679688 29.03555870056152 34.94313812255859 29.85566902160645 35.15373229980469 30.62406921386719 L 38.22782897949219 41.84066772460938 C 38.7168083190918 43.62484741210938 36.72949600219727 45.05948638916016 35.18997192382812 44.0336799621582 L 25.60898971557617 37.64978790283203 C 24.93738174438477 37.20228958129883 24.06261825561523 37.20228958129883 23.39101028442383 37.64978790283203 L 13.81003189086914 44.0336799621582 C 12.2704963684082 45.05949020385742 10.28318786621094 43.62484741210938 10.77217102050781 41.84066772460938 L 13.84627151489258 30.62406921386719 C 14.05686187744141 29.85566902160645 13.79129028320312 29.03555870056152 13.17023849487305 28.53645896911621 L 4.130378723144531 21.27171897888184 C 2.693180084228516 20.11672973632812 3.451591491699219 17.79744911193848 5.293521881103516 17.71475982666016 L 16.80654144287109 17.19789886474609 C 17.60881996154785 17.16188812255859 18.3117504119873 16.64947891235352 18.59153938293457 15.89669799804688 L 22.62529945373535 5.043869018554688 C 22.94821929931641 4.175060272216797 23.7241096496582 3.740653991699219 24.49999809265137 3.740653991699219 Z" stroke="none" fill="#707070"/>
  </g>
</svg>
