<svg xmlns="http://www.w3.org/2000/svg" width="65.187" height="44.873" viewBox="0 0 65.187 44.873">
  <g id="Group_10" data-name="Group 10" transform="translate(0.501 0.5)">
    <g id="Group_11" data-name="Group 11" transform="translate(0 0)">
      <path id="Path_2" data-name="Path 2" d="M64.252,84.633c-.678,1.226-1.536,1.648-2.549,1.256A1.818,1.818,0,0,1,60.5,84.161a22.1,22.1,0,0,0-.149-2.95,5.554,5.554,0,0,1-.41.518Q50.1,91.567,40.268,101.4c-1.246,1.246-2.163,1.243-3.413-.008-1.359-1.358-2.738-2.7-4.064-4.087-.415-.435-.622-.355-1,.024-4.27,4.295-8.564,8.566-12.832,12.863a2.808,2.808,0,0,1-2.161.895c-4.928-.029-9.857-.012-14.785-.016A1.88,1.88,0,0,1,.1,109.513a1.9,1.9,0,0,1,1.339-2.133,2.313,2.313,0,0,1,.742-.064c4.532,0,9.064-.011,13.6.01a1.511,1.511,0,0,0,1.186-.506q6.828-6.861,13.682-13.7c1.163-1.162,2.129-1.169,3.28-.02q2.151,2.147,4.295,4.3c.213.214.342.348.634.055q9.4-9.429,18.815-18.839a.674.674,0,0,0,.049-.127c-.933,0-1.838,0-2.743,0a1.883,1.883,0,1,1,0-3.758c2.3,0,4.6.039,6.891-.018a2.242,2.242,0,0,1,2.381,1.4Z" transform="translate(-0.066 -67.215)" fill="none" stroke="#ffe7a3" stroke-width="1"/>
      <path id="Path_3" data-name="Path 3" d="M7.483,150.7c-2.318,0-4.636-.011-6.953.01-.409,0-.514-.1-.512-.512.018-3.341-.071-6.684.036-10.022a10.877,10.877,0,0,1,4.7-8.7.505.505,0,0,1,.657-.03,11.027,11.027,0,0,0,11.779.012.537.537,0,0,1,.706.044,11.126,11.126,0,0,1,4.679,8.844,6.709,6.709,0,0,1-.073,2.6c-.292.731-1.128,1.248-1.731,1.853-1.844,1.847-3.7,3.685-5.531,5.542a1.094,1.094,0,0,1-.867.36c-2.3-.016-4.594-.008-6.89-.008" transform="translate(0 -114.36)" fill="none" stroke="#ffe7a3" stroke-width="1"/>
      <path id="Path_5" data-name="Path 5" d="M37.649,37.456a7.519,7.519,0,1,1-7.48-7.525,7.5,7.5,0,0,1,7.48,7.525" transform="translate(-18.825 -29.931)" fill="none" stroke="#ffe7a3" stroke-width="1"/>
    </g>
  </g>
</svg>
