<svg xmlns="http://www.w3.org/2000/svg" xmlns:xlink="http://www.w3.org/1999/xlink" width="69.607" height="56.751" viewBox="0 0 69.607 56.751">
  <defs>
    <clipPath id="clip-path">
      <rect id="Rectangle_24" data-name="Rectangle 24" width="62.607" height="56.751" fill="none" stroke="#707070" stroke-width="1"/>
    </clipPath>
    <clipPath id="clip-path-2">
      <rect id="Rectangle_24-2" data-name="Rectangle 24" width="62.607" height="56.751" fill="#1a1a1a"/>
    </clipPath>
  </defs>
  <g id="Group_33" data-name="Group 33" transform="translate(-1203.575 -2464.625)">
    <g id="Group_28" data-name="Group 28" transform="translate(1203.575 2464.625)">
      <g id="Group_26" data-name="Group 26" clip-path="url(#clip-path)">
        <path id="Path_31" data-name="Path 31" d="M0,48.417v-2.2a7.838,7.838,0,0,1,.379-1.391C1.12,43.269,1.837,41.7,2.695,40.2Q12.828,22.587,23.009,5A9.13,9.13,0,0,1,30.4.042,8.994,8.994,0,0,1,39.478,4.8Q50.406,23.649,61.264,42.54a9.314,9.314,0,0,1-2.972,12.682,9.516,9.516,0,0,1-5.556,1.529q-19.53-.023-39.06-.008c-1.487,0-2.975.025-4.462-.015A9.161,9.161,0,0,1,.49,50.294C.282,49.684.161,49.043,0,48.417M34.757,20.981h-.02c0-.365.019-.732,0-1.1a3.434,3.434,0,0,0-5.118-2.763c-1.663.975-1.98,2.543-1.843,4.322.184,2.393.316,4.79.464,7.186.164,2.66.3,5.322.487,7.981a2.464,2.464,0,0,0,2.61,2.286,2.553,2.553,0,0,0,2.549-2.376c.033-.466.01-.936.037-1.4q.414-7.068.837-14.136M27.842,44.839A3.481,3.481,0,0,0,31.293,48.3a3.435,3.435,0,0,0,3.416-3.42,3.434,3.434,0,1,0-6.867-.042" transform="translate(0 0)" fill="none" stroke="#707070" stroke-width="1"/>
      </g>
    </g>
    <g id="Group_27" data-name="Group 27" transform="translate(1210.575 2464.625)">
      <g id="Group_26-2" data-name="Group 26" clip-path="url(#clip-path-2)">
        <path id="Path_31-2" data-name="Path 31" d="M0,48.417v-2.2a7.838,7.838,0,0,1,.379-1.391C1.12,43.269,1.837,41.7,2.695,40.2Q12.828,22.587,23.009,5A9.13,9.13,0,0,1,30.4.042,8.994,8.994,0,0,1,39.478,4.8Q50.406,23.649,61.264,42.54a9.314,9.314,0,0,1-2.972,12.682,9.516,9.516,0,0,1-5.556,1.529q-19.53-.023-39.06-.008c-1.487,0-2.975.025-4.462-.015A9.161,9.161,0,0,1,.49,50.294C.282,49.684.161,49.043,0,48.417M34.757,20.981h-.02c0-.365.019-.732,0-1.1a3.434,3.434,0,0,0-5.118-2.763c-1.663.975-1.98,2.543-1.843,4.322.184,2.393.316,4.79.464,7.186.164,2.66.3,5.322.487,7.981a2.464,2.464,0,0,0,2.61,2.286,2.553,2.553,0,0,0,2.549-2.376c.033-.466.01-.936.037-1.4q.414-7.068.837-14.136M27.842,44.839A3.481,3.481,0,0,0,31.293,48.3a3.435,3.435,0,0,0,3.416-3.42,3.434,3.434,0,1,0-6.867-.042" transform="translate(0 0)" fill="#1a1a1a"/>
      </g>
    </g>
  </g>
</svg>
