<svg xmlns="http://www.w3.org/2000/svg" xmlns:xlink="http://www.w3.org/1999/xlink" width="72.301" height="67.667" viewBox="0 0 72.301 67.667">
  <defs>
    <clipPath id="clip-path">
      <rect id="Rectangle_21" data-name="Rectangle 21" width="68.801" height="66.671" fill="#e8dbbd"/>
    </clipPath>
  </defs>
  <g id="Group_40" data-name="Group 40" transform="translate(-218.658 -977.99)">
    <g id="Group_14" data-name="Group 14" transform="translate(219.158 978.5)">
      <g id="Group_15" data-name="Group 15">
        <path id="Path_6" data-name="Path 6" d="M362.113,189.871c-.215.13-.194.379-.283.572a3.825,3.825,0,0,1-4.089,2.049c-.281-.07-.21-.247-.211-.406-.007-.784,0-1.567,0-2.351,0-3.471.009-6.942-.011-10.412,0-.476.083-.618.605-.642a3.7,3.7,0,0,1,3.992,2.725Z" transform="translate(-293.312 -146.588)" fill="none" stroke="#ffe7a3" stroke-width="1"/>
        <path id="Path_7" data-name="Path 7" d="M65.713,108.477c6.785,0,13.57.059,20.354-.023a7.065,7.065,0,0,1,7.192,7.189c-.048,8.263-.009,16.525-.017,24.788a6.882,6.882,0,0,1-5.7,6.941,9.119,9.119,0,0,1-1.806.1q-12.293.005-24.587,0a3.658,3.658,0,0,0-2.133.65c-3.558,2.392-7.136,4.755-10.7,7.139a1.373,1.373,0,0,1-1.486.265c-.578-.288-.628-.8-.623-1.364.013-1.724.008-3.448,0-5.173,0-1.083-.4-1.483-1.491-1.536a6.831,6.831,0,0,1-6.545-6.763q-.039-12.7,0-25.393a6.844,6.844,0,0,1,6.848-6.811c6.9-.015,13.793,0,20.69,0" transform="translate(-31.304 -88.977)" fill="none" stroke="#ffe7a3" stroke-width="1"/>
        <path id="Path_8" data-name="Path 8" d="M164.049,14.26c0-.761-.032-1.524.012-2.282.027-.461-.123-.635-.566-.775a5.735,5.735,0,1,1,3.621-.055c-.562.186-.746.405-.725,1,.053,1.5.006,3,.026,4.5.005.408-.059.63-.536.573-.591-.071-1.384.253-1.727-.137-.293-.333-.093-1.1-.1-1.682-.007-.38,0-.761,0-1.141" transform="translate(-130.828 0)" fill="none" stroke="#ffe7a3" stroke-width="1"/>
        <path id="Path_9" data-name="Path 9" d="M4.588,185.395c0,2.1-.013,4.2.011,6.306.005.447-.127.549-.558.549-2.143,0-3.488-.9-3.961-2.677A3.315,3.315,0,0,1,0,188.71Q0,185.355,0,182a3.593,3.593,0,0,1,4.342-3.554c.381.074.236.326.237.508.011,2.147.007,4.294.007,6.441" transform="translate(0 -146.341)" fill="none" stroke="#ffe7a3" stroke-width="1"/>
      </g>
    </g>
    <g id="Group_13" data-name="Group 13" transform="translate(222.158 978.5)">
      <g id="Group_12" data-name="Group 12" clip-path="url(#clip-path)">
        <path id="Path_6-2" data-name="Path 6" d="M362.113,189.871c-.215.13-.194.379-.283.572a3.825,3.825,0,0,1-4.089,2.049c-.281-.07-.21-.247-.211-.406-.007-.784,0-1.567,0-2.351,0-3.471.009-6.942-.011-10.412,0-.476.083-.618.605-.642a3.7,3.7,0,0,1,3.992,2.725Z" transform="translate(-293.312 -146.588)" fill="#e8dbbd"/>
        <path id="Path_7-2" data-name="Path 7" d="M65.713,108.477c6.785,0,13.57.059,20.354-.023a7.065,7.065,0,0,1,7.192,7.189c-.048,8.263-.009,16.525-.017,24.788a6.882,6.882,0,0,1-5.7,6.941,9.119,9.119,0,0,1-1.806.1q-12.293.005-24.587,0a3.658,3.658,0,0,0-2.133.65c-3.558,2.392-7.136,4.755-10.7,7.139a1.373,1.373,0,0,1-1.486.265c-.578-.288-.628-.8-.623-1.364.013-1.724.008-3.448,0-5.173,0-1.083-.4-1.483-1.491-1.536a6.831,6.831,0,0,1-6.545-6.763q-.039-12.7,0-25.393a6.844,6.844,0,0,1,6.848-6.811c6.9-.015,13.793,0,20.69,0m8.045,16.08a5.716,5.716,0,1,0,5.669-5.738,5.706,5.706,0,0,0-5.669,5.738m-16.105-.028a5.716,5.716,0,1,0-5.69,5.721,5.7,5.7,0,0,0,5.69-5.721m8.034,12.587a8.8,8.8,0,0,0,2-.153,7.382,7.382,0,0,0,4.511-2.4,1.13,1.13,0,0,0-.053-1.716,1.146,1.146,0,0,0-1.653.243,3.785,3.785,0,0,1-1.854,1.272c-2.847.788-5.6.948-7.88-1.446a1.119,1.119,0,0,0-1.47-.088,1.078,1.078,0,0,0-.257,1.492,4.158,4.158,0,0,0,.71.8,8.583,8.583,0,0,0,5.942,2" transform="translate(-31.304 -88.977)" fill="#e8dbbd"/>
        <path id="Path_8-2" data-name="Path 8" d="M164.049,14.26c0-.761-.032-1.524.012-2.282.027-.461-.123-.635-.566-.775a5.735,5.735,0,1,1,3.621-.055c-.562.186-.746.405-.725,1,.053,1.5.006,3,.026,4.5.005.408-.059.63-.536.573-.591-.071-1.384.253-1.727-.137-.293-.333-.093-1.1-.1-1.682-.007-.38,0-.761,0-1.141" transform="translate(-130.828 0)" fill="#e8dbbd"/>
        <path id="Path_9-2" data-name="Path 9" d="M4.588,185.395c0,2.1-.013,4.2.011,6.306.005.447-.127.549-.558.549-2.143,0-3.488-.9-3.961-2.677A3.315,3.315,0,0,1,0,188.71Q0,185.355,0,182a3.593,3.593,0,0,1,4.342-3.554c.381.074.236.326.237.508.011,2.147.007,4.294.007,6.441" transform="translate(0 -146.341)" fill="#e8dbbd"/>
        <path id="Path_13" data-name="Path 13" d="M252.487,178.876a3.434,3.434,0,1,1-3.448,3.425,3.394,3.394,0,0,1,3.448-3.425" transform="translate(-204.316 -146.753)" fill="#e8dbbd"/>
        <path id="Path_14" data-name="Path 14" d="M99.244,178.877a3.434,3.434,0,1,1-3.457,3.417,3.392,3.392,0,0,1,3.457-3.417" transform="translate(-78.585 -146.754)" fill="#e8dbbd"/>
      </g>
    </g>
  </g>
</svg>
