<svg xmlns="http://www.w3.org/2000/svg" xmlns:xlink="http://www.w3.org/1999/xlink" width="57.743" height="61.493" viewBox="0 0 57.743 61.493">
  <defs>
    <clipPath id="clip-path">
      <rect id="Rectangle_22" data-name="Rectangle 22" width="51.154" height="61.493" fill="none" stroke="#ffe7a3" stroke-width="1"/>
    </clipPath>
    <clipPath id="clip-path-2">
      <rect id="Rectangle_22-2" data-name="Rectangle 22" width="51.154" height="61.493" fill="#e8dbbd"/>
    </clipPath>
  </defs>
  <g id="Group_39" data-name="Group 39" transform="translate(-1234 -1015.864)">
    <g id="Group_18" data-name="Group 18" transform="translate(1234 1015.864)">
      <g id="Group_16" data-name="Group 16" clip-path="url(#clip-path)">
        <path id="Path_15" data-name="Path 15" d="M97.581,12.643a2.018,2.018,0,0,0-1.575.94q-3.163,4.739-6.318,9.484a1.781,1.781,0,0,0,.8,2.744c1.017.466,2.041.915,3.067,1.359a1.814,1.814,0,0,0,2.5-.719q2.974-4.435,5.923-8.885a1.8,1.8,0,0,0-.53-2.706c-.947-.634-1.9-1.255-2.875-1.849a5.38,5.38,0,0,0-.992-.369m6.6,19.19a1.916,1.916,0,0,0,1.77-.824c1.724-2.574,3.451-5.145,5.151-7.734a1.733,1.733,0,0,0-.5-2.483q-1.509-1.03-3.071-1.983a1.714,1.714,0,0,0-2.39.5q-2.808,4.143-5.557,8.326a1.551,1.551,0,0,0,.2,2.092,17.963,17.963,0,0,0,4.388,2.1m-25.1-20.381c1.424-2.144,2.839-4.226,4.2-6.343a1.734,1.734,0,0,0-.626-2.41C81.5,1.935,80.335,1.2,79.175.451a1.871,1.871,0,0,0-2.914.6q-2.1,3.141-4.187,6.288c-.094.141-.179.288-.289.468l7.291,3.646M82.3,13.065l7.309,3.654c1.169-1.762,2.337-3.477,3.455-5.224a1.726,1.726,0,0,0-.526-2.384q-1.911-1.288-3.874-2.5a1.735,1.735,0,0,0-2.389.51c-1.327,1.944-2.619,3.912-3.975,5.944" transform="translate(-60.27 0)" fill="none" stroke="#ffe7a3" stroke-width="1"/>
        <path id="Path_16" data-name="Path 16" d="M11.881,120.766a2.073,2.073,0,0,1-1.107-2.783c1.059-4.074,2.034-8.169,3.076-12.247A2.442,2.442,0,0,0,13.4,103.5Q6.988,94.885.607,86.247a1.921,1.921,0,0,1-.082-2.719Q4.465,77.613,8.41,71.7a1.872,1.872,0,0,1,2.807-.765q6.944,3.47,13.887,6.942c1.546.773,1.79,1.746.843,3.2-1.46,2.239-1.327,2.1-3.9,2.093q-4.774-.01-9.547,0c-1.253,0-2.053.678-2.068,1.747a1.848,1.848,0,0,0,2.067,1.838c2.3.012,4.6.017,6.9-.008a.813.813,0,0,1,.856.541q3.947,7.942,7.921,15.87a1.944,1.944,0,0,0,1.77,1.3,1.75,1.75,0,0,0,1.679-2.363,4.93,4.93,0,0,0-.249-.544q-3.59-7.185-7.182-14.37c-.052-.1-.1-.213-.231-.5a7.468,7.468,0,0,1,1.639.291c5.21,2.286,10.426,4.558,15.594,6.933,2.5,1.147,4.736,1.074,6.835-.811.041.062.1.106.1.149-.025,2.059.053,4.127-.111,6.176a10.062,10.062,0,0,1-4.146,7.345,12.57,12.57,0,0,1-1.334.917,2.138,2.138,0,0,0-1.085,2.051c.018,2.921-.021,5.844.021,8.764a2.131,2.131,0,0,1-1.365,2.275Z" transform="translate(0 -59.272)" fill="none" stroke="#ffe7a3" stroke-width="1"/>
        <path id="Path_17" data-name="Path 17" d="M189.418,78.817a5.367,5.367,0,0,1,.992.368c.972.593,1.928,1.215,2.875,1.849a1.8,1.8,0,0,1,.53,2.706q-2.95,4.45-5.923,8.885a1.814,1.814,0,0,1-2.5.719c-1.026-.444-2.051-.893-3.067-1.359a1.781,1.781,0,0,1-.8-2.744q3.143-4.752,6.318-9.484a2.017,2.017,0,0,1,1.575-.94" transform="translate(-152.107 -66.174)" fill="none" stroke="#ffe7a3" stroke-width="1"/>
        <path id="Path_18" data-name="Path 18" d="M248.091,128.8a17.958,17.958,0,0,1-4.389-2.1,1.551,1.551,0,0,1-.2-2.092q2.752-4.18,5.557-8.326a1.714,1.714,0,0,1,2.39-.5q1.561.95,3.071,1.983a1.733,1.733,0,0,1,.5,2.482c-1.7,2.589-3.428,5.16-5.151,7.734a1.916,1.916,0,0,1-1.77.824" transform="translate(-204.181 -96.97)" fill="none" stroke="#ffe7a3" stroke-width="1"/>
        <path id="Path_19" data-name="Path 19" d="M79.076,11.453,71.785,7.807c.111-.179.2-.327.289-.468q2.092-3.144,4.187-6.287a1.871,1.871,0,0,1,2.914-.6C80.335,1.2,81.5,1.935,82.647,2.7a1.734,1.734,0,0,1,.626,2.41c-1.358,2.117-2.773,4.2-4.2,6.343" transform="translate(-60.27 0)" fill="none" stroke="#ffe7a3" stroke-width="1"/>
        <path id="Path_20" data-name="Path 20" d="M137.357,46.231c1.355-2.032,2.648-4,3.975-5.944a1.735,1.735,0,0,1,2.389-.51q1.963,1.207,3.874,2.5a1.726,1.726,0,0,1,.526,2.384c-1.118,1.747-2.286,3.462-3.455,5.224l-7.309-3.654" transform="translate(-115.324 -33.166)" fill="none" stroke="#ffe7a3" stroke-width="1"/>
      </g>
    </g>
    <g id="Group_17" data-name="Group 17" transform="translate(1240.589 1015.864)">
      <g id="Group_16-2" data-name="Group 16" clip-path="url(#clip-path-2)">
        <path id="Path_15-2" data-name="Path 15" d="M97.581,12.643a2.018,2.018,0,0,0-1.575.94q-3.163,4.739-6.318,9.484a1.781,1.781,0,0,0,.8,2.744c1.017.466,2.041.915,3.067,1.359a1.814,1.814,0,0,0,2.5-.719q2.974-4.435,5.923-8.885a1.8,1.8,0,0,0-.53-2.706c-.947-.634-1.9-1.255-2.875-1.849a5.38,5.38,0,0,0-.992-.369m6.6,19.19a1.916,1.916,0,0,0,1.77-.824c1.724-2.574,3.451-5.145,5.151-7.734a1.733,1.733,0,0,0-.5-2.483q-1.509-1.03-3.071-1.983a1.714,1.714,0,0,0-2.39.5q-2.808,4.143-5.557,8.326a1.551,1.551,0,0,0,.2,2.092,17.963,17.963,0,0,0,4.388,2.1m-25.1-20.381c1.424-2.144,2.839-4.226,4.2-6.343a1.734,1.734,0,0,0-.626-2.41C81.5,1.935,80.335,1.2,79.175.451a1.871,1.871,0,0,0-2.914.6q-2.1,3.141-4.187,6.288c-.094.141-.179.288-.289.468l7.291,3.646M82.3,13.065l7.309,3.654c1.169-1.762,2.337-3.477,3.455-5.224a1.726,1.726,0,0,0-.526-2.384q-1.911-1.288-3.874-2.5a1.735,1.735,0,0,0-2.389.51c-1.327,1.944-2.619,3.912-3.975,5.944" transform="translate(-60.27 0)" fill="#e8dbbd"/>
        <path id="Path_16-2" data-name="Path 16" d="M11.881,120.766a2.073,2.073,0,0,1-1.107-2.783c1.059-4.074,2.034-8.169,3.076-12.247A2.442,2.442,0,0,0,13.4,103.5Q6.988,94.885.607,86.247a1.921,1.921,0,0,1-.082-2.719Q4.465,77.613,8.41,71.7a1.872,1.872,0,0,1,2.807-.765q6.944,3.47,13.887,6.942c1.546.773,1.79,1.746.843,3.2-1.46,2.239-1.327,2.1-3.9,2.093q-4.774-.01-9.547,0c-1.253,0-2.053.678-2.068,1.747a1.848,1.848,0,0,0,2.067,1.838c2.3.012,4.6.017,6.9-.008a.813.813,0,0,1,.856.541q3.947,7.942,7.921,15.87a1.944,1.944,0,0,0,1.77,1.3,1.75,1.75,0,0,0,1.679-2.363,4.93,4.93,0,0,0-.249-.544q-3.59-7.185-7.182-14.37c-.052-.1-.1-.213-.231-.5a7.468,7.468,0,0,1,1.639.291c5.21,2.286,10.426,4.558,15.594,6.933,2.5,1.147,4.736,1.074,6.835-.811.041.062.1.106.1.149-.025,2.059.053,4.127-.111,6.176a10.062,10.062,0,0,1-4.146,7.345,12.57,12.57,0,0,1-1.334.917,2.138,2.138,0,0,0-1.085,2.051c.018,2.921-.021,5.844.021,8.764a2.131,2.131,0,0,1-1.365,2.275Z" transform="translate(0 -59.272)" fill="#e8dbbd"/>
        <path id="Path_17-2" data-name="Path 17" d="M189.418,78.817a5.367,5.367,0,0,1,.992.368c.972.593,1.928,1.215,2.875,1.849a1.8,1.8,0,0,1,.53,2.706q-2.95,4.45-5.923,8.885a1.814,1.814,0,0,1-2.5.719c-1.026-.444-2.051-.893-3.067-1.359a1.781,1.781,0,0,1-.8-2.744q3.143-4.752,6.318-9.484a2.017,2.017,0,0,1,1.575-.94" transform="translate(-152.107 -66.174)" fill="#e8dbbd"/>
        <path id="Path_18-2" data-name="Path 18" d="M248.091,128.8a17.958,17.958,0,0,1-4.389-2.1,1.551,1.551,0,0,1-.2-2.092q2.752-4.18,5.557-8.326a1.714,1.714,0,0,1,2.39-.5q1.561.95,3.071,1.983a1.733,1.733,0,0,1,.5,2.482c-1.7,2.589-3.428,5.16-5.151,7.734a1.916,1.916,0,0,1-1.77.824" transform="translate(-204.181 -96.97)" fill="#e8dbbd"/>
        <path id="Path_19-2" data-name="Path 19" d="M79.076,11.453,71.785,7.807c.111-.179.2-.327.289-.468q2.092-3.144,4.187-6.287a1.871,1.871,0,0,1,2.914-.6C80.335,1.2,81.5,1.935,82.647,2.7a1.734,1.734,0,0,1,.626,2.41c-1.358,2.117-2.773,4.2-4.2,6.343" transform="translate(-60.27 0)" fill="#e8dbbd"/>
        <path id="Path_20-2" data-name="Path 20" d="M137.357,46.231c1.355-2.032,2.648-4,3.975-5.944a1.735,1.735,0,0,1,2.389-.51q1.963,1.207,3.874,2.5a1.726,1.726,0,0,1,.526,2.384c-1.118,1.747-2.286,3.462-3.455,5.224l-7.309-3.654" transform="translate(-115.324 -33.166)" fill="#e8dbbd"/>
      </g>
    </g>
  </g>
</svg>
