<svg xmlns="http://www.w3.org/2000/svg" width="91.934" height="80.12" viewBox="0 0 91.934 80.12">
  <g id="Group_35" data-name="Group 35" transform="translate(-403.707 -1877.339)">
    <g id="Group_22" data-name="Group 22" transform="translate(404.207 1877.839)">
      <g id="Group_21" data-name="Group 21" transform="translate(0 0)">
        <path id="Path_22" data-name="Path 22" d="M0,82.263V67.406c1.234,0,2.441,0,3.648,0,.926,0,2.062.3,2.717-.127.633-.412.766-1.587,1.125-2.424A30.715,30.715,0,0,1,20.014,50.607a1.765,1.765,0,0,0,1.011-1.766C20.954,46.064,21,43.284,21,40.284c1.054.268,2.022.47,2.962.762a13.164,13.164,0,0,1,4.568,2.6,1.792,1.792,0,0,1,.685,1.482,17.887,17.887,0,0,0,34.013,7.526c.1-.2.2-.4.342-.678A27.955,27.955,0,0,1,68.682,56.3a27.583,27.583,0,0,1,7.373,14.939c.275,1.733.3,1.721,2.1,1.7a3.346,3.346,0,0,0,2.607-.963,2.17,2.17,0,0,0,.534-1.522c-.045-.335-.666-.711-1.1-.853a2.265,2.265,0,0,1-1.617-2.769,2.058,2.058,0,0,1,2.593-1.286,5.061,5.061,0,0,1,4.173,4.233,5.2,5.2,0,0,1-2.439,5.5,9.389,9.389,0,0,1-6.99,1.631c-.138.959-.232,1.9-.412,2.817a27.758,27.758,0,0,1-10.754,17,68.419,68.419,0,0,1-6.823,4.277.984.984,0,0,0-.6.982c.024,2.633.011,5.266.011,7.972H47.343v-5.618a40.821,40.821,0,0,1-13.135-.023v5.714H32.136c-2.347,0-4.694-.024-7.041.014-.7.012-.955-.167-.94-.912.046-2.317-.01-4.637.034-6.955a1.209,1.209,0,0,0-.822-1.3A31.766,31.766,0,0,1,8.593,87.065a33.774,33.774,0,0,1-1.707-3.978c-.227-.6-.479-.861-1.16-.842-1.876.052-3.755.018-5.726.018M16.347,66.692a2.717,2.717,0,0,0,2.889-2.608,2.856,2.856,0,1,0-5.708-.2,2.8,2.8,0,0,0,2.819,2.807" transform="translate(0 -30.928)" fill="none" stroke="#707070" stroke-width="1"/>
        <path id="Path_23" data-name="Path 23" d="M155.246,0a14.341,14.341,0,0,1,14.29,14.245A14.266,14.266,0,1,1,155.246,0M153.2,17.178h-2.544c.045,2.013.971,3.584,2.673,3.989,1.2.286,1.632.806,1.465,1.955-.006.043.054.095.094.161h1.247c0-.485.015-.914,0-1.341s.126-.6.579-.655a3.223,3.223,0,0,0,2.992-2.481,3.756,3.756,0,0,0-1.257-4.14,13.922,13.922,0,0,0-2.086-1.215,18.165,18.165,0,0,1-1.888-1.046,1.531,1.531,0,1,1,1.761-2.5,10.461,10.461,0,0,1,1.4,1.971h2.218c-.023-2.442-1.1-3.974-3.569-4.4V5.441h-1.34V7.434c-.362.1-.637.172-.911.248a3.641,3.641,0,0,0-2.692,4.75,4.312,4.312,0,0,0,2.629,2.708,26.172,26.172,0,0,1,2.425,1.143,1.738,1.738,0,0,1,.764,2.042,1.612,1.612,0,0,1-1.776,1.088c-1.224-.017-1.774-.587-2.184-2.235" transform="translate(-108.255 0)" fill="none" stroke="#707070" stroke-width="1"/>
        <path id="Path_24" data-name="Path 24" d="M63.7,58.932V51.727c.817.177,1.57.309,2.3.521a.735.735,0,0,1,.37.566c.033,1.272.026,2.546.007,3.819a.741.741,0,0,1-.226.52c-.77.588-1.566,1.143-2.45,1.779" transform="translate(-48.904 -39.713)" fill="none" stroke="#707070" stroke-width="1"/>
      </g>
    </g>
    <g id="Group_20" data-name="Group 20" transform="translate(410.207 1877.839)">
      <g id="Group_21-2" data-name="Group 21" transform="translate(0 0)">
        <path id="Path_22-2" data-name="Path 22" d="M0,82.263V67.406c1.234,0,2.441,0,3.648,0,.926,0,2.062.3,2.717-.127.633-.412.766-1.587,1.125-2.424A30.715,30.715,0,0,1,20.014,50.607a1.765,1.765,0,0,0,1.011-1.766C20.954,46.064,21,43.284,21,40.284c1.054.268,2.022.47,2.962.762a13.164,13.164,0,0,1,4.568,2.6,1.792,1.792,0,0,1,.685,1.482,17.887,17.887,0,0,0,34.013,7.526c.1-.2.2-.4.342-.678A27.955,27.955,0,0,1,68.682,56.3a27.583,27.583,0,0,1,7.373,14.939c.275,1.733.3,1.721,2.1,1.7a3.346,3.346,0,0,0,2.607-.963,2.17,2.17,0,0,0,.534-1.522c-.045-.335-.666-.711-1.1-.853a2.265,2.265,0,0,1-1.617-2.769,2.058,2.058,0,0,1,2.593-1.286,5.061,5.061,0,0,1,4.173,4.233,5.2,5.2,0,0,1-2.439,5.5,9.389,9.389,0,0,1-6.99,1.631c-.138.959-.232,1.9-.412,2.817a27.758,27.758,0,0,1-10.754,17,68.419,68.419,0,0,1-6.823,4.277.984.984,0,0,0-.6.982c.024,2.633.011,5.266.011,7.972H47.343v-5.618a40.821,40.821,0,0,1-13.135-.023v5.714H32.136c-2.347,0-4.694-.024-7.041.014-.7.012-.955-.167-.94-.912.046-2.317-.01-4.637.034-6.955a1.209,1.209,0,0,0-.822-1.3A31.766,31.766,0,0,1,8.593,87.065a33.774,33.774,0,0,1-1.707-3.978c-.227-.6-.479-.861-1.16-.842-1.876.052-3.755.018-5.726.018M16.347,66.692a2.717,2.717,0,0,0,2.889-2.608,2.856,2.856,0,1,0-5.708-.2,2.8,2.8,0,0,0,2.819,2.807" transform="translate(0 -30.928)" fill="#1a1a1a"/>
        <path id="Path_23-2" data-name="Path 23" d="M155.246,0a14.341,14.341,0,0,1,14.29,14.245A14.266,14.266,0,1,1,155.246,0M153.2,17.178h-2.544c.045,2.013.971,3.584,2.673,3.989,1.2.286,1.632.806,1.465,1.955-.006.043.054.095.094.161h1.247c0-.485.015-.914,0-1.341s.126-.6.579-.655a3.223,3.223,0,0,0,2.992-2.481,3.756,3.756,0,0,0-1.257-4.14,13.922,13.922,0,0,0-2.086-1.215,18.165,18.165,0,0,1-1.888-1.046,1.531,1.531,0,1,1,1.761-2.5,10.461,10.461,0,0,1,1.4,1.971h2.218c-.023-2.442-1.1-3.974-3.569-4.4V5.441h-1.34V7.434c-.362.1-.637.172-.911.248a3.641,3.641,0,0,0-2.692,4.75,4.312,4.312,0,0,0,2.629,2.708,26.172,26.172,0,0,1,2.425,1.143,1.738,1.738,0,0,1,.764,2.042,1.612,1.612,0,0,1-1.776,1.088c-1.224-.017-1.774-.587-2.184-2.235" transform="translate(-108.255 0)" fill="#1a1a1a"/>
        <path id="Path_24-2" data-name="Path 24" d="M63.7,58.932V51.727c.817.177,1.57.309,2.3.521a.735.735,0,0,1,.37.566c.033,1.272.026,2.546.007,3.819a.741.741,0,0,1-.226.52c-.77.588-1.566,1.143-2.45,1.779" transform="translate(-48.904 -39.713)" fill="#1a1a1a"/>
      </g>
    </g>
  </g>
</svg>
