<svg xmlns="http://www.w3.org/2000/svg" xmlns:xlink="http://www.w3.org/1999/xlink" width="81.533" height="76.906" viewBox="0 0 81.533 76.906">
  <defs>
    <clipPath id="clip-path">
      <rect id="Rectangle_23" data-name="Rectangle 23" width="76.204" height="76.906" fill="none" stroke="#707070" stroke-width="1"/>
    </clipPath>
    <clipPath id="clip-path-2">
      <rect id="Rectangle_23-2" data-name="Rectangle 23" width="76.204" height="76.906" fill="#1a1a1a"/>
    </clipPath>
  </defs>
  <g id="Group_34" data-name="Group 34" transform="translate(-503.5 -2493)">
    <g id="Group_25" data-name="Group 25" transform="translate(503.5 2493)">
      <g id="Group_23" data-name="Group 23" clip-path="url(#clip-path)">
        <path id="Path_25" data-name="Path 25" d="M12.275,74.155c.269.014.468.032.666.032q16.046,0,32.092.011a9.193,9.193,0,0,0,4.936-1.415q6.864-4.2,13.742-8.386,5.552-3.382,11.108-6.757a2.41,2.41,0,0,0,1.342-2.562c-.311-1.629-1.73-2.351-3.5-1.762-8.064,2.687-16.12,5.4-24.2,8.043a11.437,11.437,0,0,1-3.323.544c-3.809.066-7.619.025-11.429.026a10.3,10.3,0,0,0-4.676,1.05c-.852.427-1.637.988-2.463,1.469a1.332,1.332,0,0,1-1.815-.351,1.283,1.283,0,0,1,.259-1.823A13.186,13.186,0,0,1,32.2,59.357c2.844-.15,5.7-.1,8.548-.134,1.358-.014,1.584-.163,1.823-1.5a3.189,3.189,0,0,0-.031-1.343,4.9,4.9,0,0,0-4.154-3.8,35.634,35.634,0,0,0-4.9-.178c-1.588-.034-3.186.051-4.763-.092a13.884,13.884,0,0,1-7.345-3.094c-2.685-2.09-5.8-2.472-9.1-2.2ZM54.45,17.084c1.632,0,3.189-.01,4.745,0a1.429,1.429,0,0,0,1.123-2.516Q53.9,7.631,47.485.68a1.421,1.421,0,0,0-2.431.011c-1.257,1.345-2.5,2.7-3.749,4.055q-4.541,4.92-9.087,9.835a1.464,1.464,0,0,0-.411,1.649,1.4,1.4,0,0,0,1.464.856c.554-.012,1.109,0,1.664,0h3.179V18.1q0,10.139,0,20.278c0,1.4.435,1.835,1.865,1.836q6.279,0,12.558,0c1.456,0,1.912-.454,1.912-1.887q0-10.139,0-20.278ZM9.573,60.55q0-7.265,0-14.53c0-1.3-.5-1.785-1.788-1.789q-2.989-.01-5.977,0c-1.285,0-1.8.508-1.8,1.785-.008,1.867,0,3.733,0,5.6q0,11.73,0,23.46c0,1.374.454,1.829,1.8,1.83q2.913,0,5.826,0c1.566,0,1.945-.382,1.946-1.977q0-7.189,0-14.379M19.05,29.358v.911q0,4.087,0,8.175c0,1.248.494,1.76,1.729,1.767q3.027.017,6.054,0c1.3-.006,1.75-.468,1.752-1.8q.006-4.087,0-8.175V29.4a6.152,6.152,0,0,1,.671-.035,1.41,1.41,0,0,0,1.552-.821,1.474,1.474,0,0,0-.448-1.7c-1.787-1.921-3.554-3.86-5.342-5.779a1.4,1.4,0,0,0-2.383.01c-1.255,1.347-2.5,2.7-3.751,4.056L17.14,27.013a1.351,1.351,0,0,0-.282,1.54,1.293,1.293,0,0,0,1.333.807c.25-.01.5,0,.859,0m54.451,0c.352,0,.623,0,.893,0a1.3,1.3,0,0,0,1.272-.781A1.242,1.242,0,0,0,75.46,27.1c-1.923-2.1-3.848-4.2-5.8-6.272a1.237,1.237,0,0,0-1.889-.005c-1.972,2.09-3.934,4.192-5.833,6.347a1.539,1.539,0,0,0-.15,1.369c.17.369.718.609,1.148.794a2.869,2.869,0,0,0,1,.021v.923c0,2.7,0,5.4,0,8.094,0,1.371.459,1.833,1.8,1.838q2.987.01,5.975,0C73,40.205,73.5,39.7,73.5,38.41q.009-4.085,0-8.169v-.882" transform="translate(0 0)" fill="none" stroke="#707070" stroke-width="1"/>
        <path id="Path_26" data-name="Path 26" d="M60.7,259.34V232.2c3.3-.274,6.415.108,9.1,2.2a13.886,13.886,0,0,0,7.345,3.094c1.577.143,3.175.058,4.763.092a35.632,35.632,0,0,1,4.9.178,4.9,4.9,0,0,1,4.154,3.8A3.189,3.189,0,0,1,91,242.905c-.239,1.34-.465,1.489-1.823,1.5-2.85.029-5.7-.016-8.548.134a13.188,13.188,0,0,0-7.176,2.917,1.283,1.283,0,0,0-.259,1.823,1.333,1.333,0,0,0,1.815.351c.826-.481,1.611-1.042,2.463-1.469a10.307,10.307,0,0,1,4.676-1.05c3.81,0,7.62.04,11.429-.025a11.45,11.45,0,0,0,3.323-.544c8.076-2.648,16.133-5.357,24.2-8.043,1.766-.588,3.185.133,3.5,1.762a2.409,2.409,0,0,1-1.342,2.561q-5.552,3.382-11.108,6.757-6.874,4.188-13.742,8.386a9.193,9.193,0,0,1-4.936,1.415q-16.046-.031-32.092-.011c-.2,0-.4-.019-.666-.032" transform="translate(-48.428 -185.185)" fill="none" stroke="#707070" stroke-width="1"/>
        <path id="Path_27" data-name="Path 27" d="M179.5,17.084v.963q0,10.139,0,20.278c0,1.434-.456,1.886-1.912,1.887q-6.279,0-12.558,0c-1.43,0-1.865-.433-1.865-1.836q0-10.139,0-20.278V17.085h-3.179c-.555,0-1.11-.01-1.664,0a1.405,1.405,0,0,1-1.464-.856,1.463,1.463,0,0,1,.411-1.649q4.555-4.907,9.087-9.835c1.249-1.353,2.492-2.71,3.749-4.055A1.421,1.421,0,0,1,172.532.68q6.422,6.942,12.833,13.893a1.429,1.429,0,0,1-1.123,2.516c-1.556-.015-3.113,0-4.745,0" transform="translate(-125.047 0)" fill="none" stroke="#707070" stroke-width="1"/>
        <path id="Path_28" data-name="Path 28" d="M9.573,235.032q0,7.189,0,14.378c0,1.6-.38,1.977-1.946,1.977q-2.913,0-5.826,0c-1.344,0-1.8-.456-1.8-1.83q0-11.73,0-23.46c0-1.867-.006-3.733,0-5.6.005-1.276.516-1.781,1.8-1.785q2.989-.009,5.977,0c1.291,0,1.786.49,1.788,1.789q.011,7.265,0,14.53" transform="translate(0 -174.482)" fill="none" stroke="#707070" stroke-width="1"/>
        <path id="Path_29" data-name="Path 29" d="M85.056,109.838c-.359,0-.609-.008-.859,0a1.292,1.292,0,0,1-1.333-.807,1.35,1.35,0,0,1,.282-1.54l1.747-1.889q1.875-2.029,3.751-4.056a1.4,1.4,0,0,1,2.382-.01c1.789,1.919,3.556,3.858,5.343,5.779a1.475,1.475,0,0,1,.448,1.7,1.41,1.41,0,0,1-1.552.821,6.138,6.138,0,0,0-.671.035v.841q0,4.087,0,8.175c0,1.33-.448,1.793-1.752,1.8q-3.027.013-6.054,0c-1.236-.007-1.728-.519-1.729-1.767q-.005-4.087,0-8.175v-.911" transform="translate(-66.006 -80.48)" fill="none" stroke="#707070" stroke-width="1"/>
        <path id="Path_30" data-name="Path 30" d="M316.881,109.8v.882q0,4.085,0,8.169c0,1.294-.5,1.8-1.781,1.8q-2.987.014-5.975,0c-1.346,0-1.8-.467-1.8-1.838-.006-2.7,0-5.4,0-8.094v-.923a2.869,2.869,0,0,1-1-.021c-.43-.185-.978-.426-1.148-.794a1.539,1.539,0,0,1,.15-1.369c1.9-2.156,3.861-4.257,5.833-6.347a1.237,1.237,0,0,1,1.889.005c1.955,2.071,3.88,4.171,5.8,6.272a1.241,1.241,0,0,1,.206,1.475,1.3,1.3,0,0,1-1.272.781c-.27-.005-.541,0-.893,0" transform="translate(-243.38 -80.438)" fill="none" stroke="#707070" stroke-width="1"/>
      </g>
    </g>
    <g id="Group_24" data-name="Group 24" transform="translate(508.829 2493)">
      <g id="Group_23-2" data-name="Group 23" clip-path="url(#clip-path-2)">
        <path id="Path_25-2" data-name="Path 25" d="M12.275,74.155c.269.014.468.032.666.032q16.046,0,32.092.011a9.193,9.193,0,0,0,4.936-1.415q6.864-4.2,13.742-8.386,5.552-3.382,11.108-6.757a2.41,2.41,0,0,0,1.342-2.562c-.311-1.629-1.73-2.351-3.5-1.762-8.064,2.687-16.12,5.4-24.2,8.043a11.437,11.437,0,0,1-3.323.544c-3.809.066-7.619.025-11.429.026a10.3,10.3,0,0,0-4.676,1.05c-.852.427-1.637.988-2.463,1.469a1.332,1.332,0,0,1-1.815-.351,1.283,1.283,0,0,1,.259-1.823A13.186,13.186,0,0,1,32.2,59.357c2.844-.15,5.7-.1,8.548-.134,1.358-.014,1.584-.163,1.823-1.5a3.189,3.189,0,0,0-.031-1.343,4.9,4.9,0,0,0-4.154-3.8,35.634,35.634,0,0,0-4.9-.178c-1.588-.034-3.186.051-4.763-.092a13.884,13.884,0,0,1-7.345-3.094c-2.685-2.09-5.8-2.472-9.1-2.2ZM54.45,17.084c1.632,0,3.189-.01,4.745,0a1.429,1.429,0,0,0,1.123-2.516Q53.9,7.631,47.485.68a1.421,1.421,0,0,0-2.431.011c-1.257,1.345-2.5,2.7-3.749,4.055q-4.541,4.92-9.087,9.835a1.464,1.464,0,0,0-.411,1.649,1.4,1.4,0,0,0,1.464.856c.554-.012,1.109,0,1.664,0h3.179V18.1q0,10.139,0,20.278c0,1.4.435,1.835,1.865,1.836q6.279,0,12.558,0c1.456,0,1.912-.454,1.912-1.887q0-10.139,0-20.278ZM9.573,60.55q0-7.265,0-14.53c0-1.3-.5-1.785-1.788-1.789q-2.989-.01-5.977,0c-1.285,0-1.8.508-1.8,1.785-.008,1.867,0,3.733,0,5.6q0,11.73,0,23.46c0,1.374.454,1.829,1.8,1.83q2.913,0,5.826,0c1.566,0,1.945-.382,1.946-1.977q0-7.189,0-14.379M19.05,29.358v.911q0,4.087,0,8.175c0,1.248.494,1.76,1.729,1.767q3.027.017,6.054,0c1.3-.006,1.75-.468,1.752-1.8q.006-4.087,0-8.175V29.4a6.152,6.152,0,0,1,.671-.035,1.41,1.41,0,0,0,1.552-.821,1.474,1.474,0,0,0-.448-1.7c-1.787-1.921-3.554-3.86-5.342-5.779a1.4,1.4,0,0,0-2.383.01c-1.255,1.347-2.5,2.7-3.751,4.056L17.14,27.013a1.351,1.351,0,0,0-.282,1.54,1.293,1.293,0,0,0,1.333.807c.25-.01.5,0,.859,0m54.451,0c.352,0,.623,0,.893,0a1.3,1.3,0,0,0,1.272-.781A1.242,1.242,0,0,0,75.46,27.1c-1.923-2.1-3.848-4.2-5.8-6.272a1.237,1.237,0,0,0-1.889-.005c-1.972,2.09-3.934,4.192-5.833,6.347a1.539,1.539,0,0,0-.15,1.369c.17.369.718.609,1.148.794a2.869,2.869,0,0,0,1,.021v.923c0,2.7,0,5.4,0,8.094,0,1.371.459,1.833,1.8,1.838q2.987.01,5.975,0C73,40.205,73.5,39.7,73.5,38.41q.009-4.085,0-8.169v-.882" transform="translate(0 0)" fill="#1a1a1a"/>
        <path id="Path_26-2" data-name="Path 26" d="M60.7,259.34V232.2c3.3-.274,6.415.108,9.1,2.2a13.886,13.886,0,0,0,7.345,3.094c1.577.143,3.175.058,4.763.092a35.632,35.632,0,0,1,4.9.178,4.9,4.9,0,0,1,4.154,3.8A3.189,3.189,0,0,1,91,242.905c-.239,1.34-.465,1.489-1.823,1.5-2.85.029-5.7-.016-8.548.134a13.188,13.188,0,0,0-7.176,2.917,1.283,1.283,0,0,0-.259,1.823,1.333,1.333,0,0,0,1.815.351c.826-.481,1.611-1.042,2.463-1.469a10.307,10.307,0,0,1,4.676-1.05c3.81,0,7.62.04,11.429-.025a11.45,11.45,0,0,0,3.323-.544c8.076-2.648,16.133-5.357,24.2-8.043,1.766-.588,3.185.133,3.5,1.762a2.409,2.409,0,0,1-1.342,2.561q-5.552,3.382-11.108,6.757-6.874,4.188-13.742,8.386a9.193,9.193,0,0,1-4.936,1.415q-16.046-.031-32.092-.011c-.2,0-.4-.019-.666-.032" transform="translate(-48.428 -185.185)" fill="#1a1a1a"/>
        <path id="Path_27-2" data-name="Path 27" d="M179.5,17.084v.963q0,10.139,0,20.278c0,1.434-.456,1.886-1.912,1.887q-6.279,0-12.558,0c-1.43,0-1.865-.433-1.865-1.836q0-10.139,0-20.278V17.085h-3.179c-.555,0-1.11-.01-1.664,0a1.405,1.405,0,0,1-1.464-.856,1.463,1.463,0,0,1,.411-1.649q4.555-4.907,9.087-9.835c1.249-1.353,2.492-2.71,3.749-4.055A1.421,1.421,0,0,1,172.532.68q6.422,6.942,12.833,13.893a1.429,1.429,0,0,1-1.123,2.516c-1.556-.015-3.113,0-4.745,0" transform="translate(-125.047 0)" fill="#1a1a1a"/>
        <path id="Path_28-2" data-name="Path 28" d="M9.573,235.032q0,7.189,0,14.378c0,1.6-.38,1.977-1.946,1.977q-2.913,0-5.826,0c-1.344,0-1.8-.456-1.8-1.83q0-11.73,0-23.46c0-1.867-.006-3.733,0-5.6.005-1.276.516-1.781,1.8-1.785q2.989-.009,5.977,0c1.291,0,1.786.49,1.788,1.789q.011,7.265,0,14.53" transform="translate(0 -174.482)" fill="#1a1a1a"/>
        <path id="Path_29-2" data-name="Path 29" d="M85.056,109.838c-.359,0-.609-.008-.859,0a1.292,1.292,0,0,1-1.333-.807,1.35,1.35,0,0,1,.282-1.54l1.747-1.889q1.875-2.029,3.751-4.056a1.4,1.4,0,0,1,2.382-.01c1.789,1.919,3.556,3.858,5.343,5.779a1.475,1.475,0,0,1,.448,1.7,1.41,1.41,0,0,1-1.552.821,6.138,6.138,0,0,0-.671.035v.841q0,4.087,0,8.175c0,1.33-.448,1.793-1.752,1.8q-3.027.013-6.054,0c-1.236-.007-1.728-.519-1.729-1.767q-.005-4.087,0-8.175v-.911" transform="translate(-66.006 -80.48)" fill="#1a1a1a"/>
        <path id="Path_30-2" data-name="Path 30" d="M316.881,109.8v.882q0,4.085,0,8.169c0,1.294-.5,1.8-1.781,1.8q-2.987.014-5.975,0c-1.346,0-1.8-.467-1.8-1.838-.006-2.7,0-5.4,0-8.094v-.923a2.869,2.869,0,0,1-1-.021c-.43-.185-.978-.426-1.148-.794a1.539,1.539,0,0,1,.15-1.369c1.9-2.156,3.861-4.257,5.833-6.347a1.237,1.237,0,0,1,1.889.005c1.955,2.071,3.88,4.171,5.8,6.272a1.241,1.241,0,0,1,.206,1.475,1.3,1.3,0,0,1-1.272.781c-.27-.005-.541,0-.893,0" transform="translate(-243.38 -80.438)" fill="#1a1a1a"/>
      </g>
    </g>
  </g>
</svg>
