<svg xmlns="http://www.w3.org/2000/svg" width="36.542" height="32.188" viewBox="0 0 36.542 32.188">
  <g id="Group_36" data-name="Group 36" transform="translate(0.5 0.5)">
    <g id="Group_22" data-name="Group 22" transform="translate(0 0)">
      <g id="Group_21" data-name="Group 21" transform="translate(0 0)">
        <path id="Path_22" data-name="Path 22" d="M0,56.832V50.975c.487,0,.962,0,1.438,0,.365,0,.813.118,1.071-.05s.3-.626.443-.956a12.107,12.107,0,0,1,4.937-5.616.7.7,0,0,0,.4-.7c-.028-1.095-.01-2.191-.01-3.373.416.105.8.185,1.168.3a5.189,5.189,0,0,1,1.8,1.026.706.706,0,0,1,.27.584,7.051,7.051,0,0,0,13.407,2.967c.038-.08.08-.159.135-.267A11.019,11.019,0,0,1,27.073,46.6a10.873,10.873,0,0,1,2.906,5.889c.108.683.117.678.826.669a1.319,1.319,0,0,0,1.028-.38.855.855,0,0,0,.211-.6c-.018-.132-.263-.28-.434-.336a.893.893,0,0,1-.637-1.091A.811.811,0,0,1,32,50.243a2,2,0,0,1,1.645,1.669,2.048,2.048,0,0,1-.961,2.167,3.7,3.7,0,0,1-2.755.643c-.054.378-.092.748-.162,1.11a10.942,10.942,0,0,1-4.239,6.7,26.97,26.97,0,0,1-2.689,1.686.388.388,0,0,0-.238.387c.01,1.038,0,2.076,0,3.142H18.662V65.535a16.091,16.091,0,0,1-5.178-.009v2.252h-.817c-.925,0-1.85-.009-2.775.006-.277,0-.376-.066-.37-.36.018-.913,0-1.828.013-2.741a.476.476,0,0,0-.324-.513,12.522,12.522,0,0,1-5.824-5.445,13.313,13.313,0,0,1-.673-1.568c-.089-.237-.189-.339-.457-.332-.74.021-1.48.007-2.257.007m6.444-6.138a1.071,1.071,0,0,0,1.139-1.028,1.126,1.126,0,1,0-2.25-.078,1.1,1.1,0,0,0,1.111,1.106" transform="translate(0 -36.596)" fill="none" stroke="#707070" stroke-width="1"/>
        <path id="Path_23" data-name="Path 23" d="M146.618,0a5.653,5.653,0,0,1,5.633,5.615A5.623,5.623,0,1,1,146.618,0m-.8,6.772h-1a1.5,1.5,0,0,0,1.054,1.572c.474.113.643.318.577.771,0,.017.021.037.037.064h.491c0-.191.006-.36,0-.529s.05-.235.228-.258a1.271,1.271,0,0,0,1.179-.978,1.481,1.481,0,0,0-.5-1.632,5.487,5.487,0,0,0-.822-.479,7.16,7.16,0,0,1-.744-.412.6.6,0,1,1,.694-.987,4.125,4.125,0,0,1,.553.777h.874a1.566,1.566,0,0,0-1.407-1.735v-.8H146.5V2.93l-.359.1A1.435,1.435,0,0,0,145.081,4.9a1.7,1.7,0,0,0,1.036,1.068,10.318,10.318,0,0,1,.956.451.685.685,0,0,1,.3.8.635.635,0,0,1-.7.429c-.483-.007-.7-.231-.861-.881" transform="translate(-128.095 0)" fill="none" stroke="#707070" stroke-width="1"/>
        <path id="Path_24" data-name="Path 24" d="M63.7,54.567v-2.84c.322.07.619.122.906.205a.29.29,0,0,1,.146.223c.013.5.01,1,0,1.505a.292.292,0,0,1-.089.205c-.3.232-.617.451-.966.7" transform="translate(-57.866 -46.991)" fill="none" stroke="#707070" stroke-width="1"/>
      </g>
    </g>
    <g id="Group_20" data-name="Group 20" transform="translate(2.365 0)">
      <g id="Group_21-2" data-name="Group 21" transform="translate(0 0)">
        <path id="Path_22-2" data-name="Path 22" d="M0,56.832V50.975c.487,0,.962,0,1.438,0,.365,0,.813.118,1.071-.05s.3-.626.443-.956a12.107,12.107,0,0,1,4.937-5.616.7.7,0,0,0,.4-.7c-.028-1.095-.01-2.191-.01-3.373.416.105.8.185,1.168.3a5.189,5.189,0,0,1,1.8,1.026.706.706,0,0,1,.27.584,7.051,7.051,0,0,0,13.407,2.967c.038-.08.08-.159.135-.267A11.019,11.019,0,0,1,27.073,46.6a10.873,10.873,0,0,1,2.906,5.889c.108.683.117.678.826.669a1.319,1.319,0,0,0,1.028-.38.855.855,0,0,0,.211-.6c-.018-.132-.263-.28-.434-.336a.893.893,0,0,1-.637-1.091A.811.811,0,0,1,32,50.243a2,2,0,0,1,1.645,1.669,2.048,2.048,0,0,1-.961,2.167,3.7,3.7,0,0,1-2.755.643c-.054.378-.092.748-.162,1.11a10.942,10.942,0,0,1-4.239,6.7,26.97,26.97,0,0,1-2.689,1.686.388.388,0,0,0-.238.387c.01,1.038,0,2.076,0,3.142H18.662V65.535a16.091,16.091,0,0,1-5.178-.009v2.252h-.817c-.925,0-1.85-.009-2.775.006-.277,0-.376-.066-.37-.36.018-.913,0-1.828.013-2.741a.476.476,0,0,0-.324-.513,12.522,12.522,0,0,1-5.824-5.445,13.313,13.313,0,0,1-.673-1.568c-.089-.237-.189-.339-.457-.332-.74.021-1.48.007-2.257.007m6.444-6.138a1.071,1.071,0,0,0,1.139-1.028,1.126,1.126,0,1,0-2.25-.078,1.1,1.1,0,0,0,1.111,1.106" transform="translate(0 -36.596)" fill="#1a1a1a"/>
        <path id="Path_23-2" data-name="Path 23" d="M146.618,0a5.653,5.653,0,0,1,5.633,5.615A5.623,5.623,0,1,1,146.618,0m-.8,6.772h-1a1.5,1.5,0,0,0,1.054,1.572c.474.113.643.318.577.771,0,.017.021.037.037.064h.491c0-.191.006-.36,0-.529s.05-.235.228-.258a1.271,1.271,0,0,0,1.179-.978,1.481,1.481,0,0,0-.5-1.632,5.487,5.487,0,0,0-.822-.479,7.16,7.16,0,0,1-.744-.412.6.6,0,1,1,.694-.987,4.125,4.125,0,0,1,.553.777h.874a1.566,1.566,0,0,0-1.407-1.735v-.8H146.5V2.93l-.359.1A1.435,1.435,0,0,0,145.081,4.9a1.7,1.7,0,0,0,1.036,1.068,10.318,10.318,0,0,1,.956.451.685.685,0,0,1,.3.8.635.635,0,0,1-.7.429c-.483-.007-.7-.231-.861-.881" transform="translate(-128.095 0)" fill="#1a1a1a"/>
        <path id="Path_24-2" data-name="Path 24" d="M63.7,54.567v-2.84c.322.07.619.122.906.205a.29.29,0,0,1,.146.223c.013.5.01,1,0,1.505a.292.292,0,0,1-.089.205c-.3.232-.617.451-.966.7" transform="translate(-57.866 -46.991)" fill="#1a1a1a"/>
      </g>
    </g>
  </g>
</svg>
