<svg xmlns="http://www.w3.org/2000/svg" xmlns:xlink="http://www.w3.org/1999/xlink" width="34.314" height="32.434" viewBox="0 0 34.314 32.434">
  <defs>
    <clipPath id="clip-path">
      <rect id="Rectangle_21" data-name="Rectangle 21" width="32.401" height="31.398" fill="#1a1a1a"/>
    </clipPath>
  </defs>
  <g id="Group_41" data-name="Group 41" transform="translate(0.5 0.541)">
    <g id="Group_14" data-name="Group 14" transform="translate(0 0)">
      <g id="Group_15" data-name="Group 15">
        <path id="Path_6" data-name="Path 6" d="M359.681,183.947c-.1.061-.091.179-.133.269a1.8,1.8,0,0,1-1.926.965c-.132-.033-.1-.116-.1-.191,0-.369,0-.738,0-1.107,0-1.635,0-3.269-.005-4.9,0-.224.039-.291.285-.3a1.741,1.741,0,0,1,1.88,1.283Z" transform="translate(-327.28 -163.563)" fill="none" stroke="#707070" stroke-width="1"/>
        <path id="Path_7" data-name="Path 7" d="M51.134,108.464c3.2,0,6.391.028,9.585-.011a3.327,3.327,0,0,1,3.387,3.386c-.023,3.891,0,7.782-.008,11.674a3.241,3.241,0,0,1-2.684,3.269,4.3,4.3,0,0,1-.851.047q-5.789,0-11.579,0a1.723,1.723,0,0,0-1,.306c-1.676,1.126-3.361,2.239-5.039,3.362a.647.647,0,0,1-.7.125c-.272-.136-.3-.377-.294-.643.006-.812,0-1.624,0-2.436,0-.51-.186-.7-.7-.723a3.217,3.217,0,0,1-3.082-3.185q-.018-5.979,0-11.958a3.223,3.223,0,0,1,3.225-3.208c3.248-.007,6.5,0,9.744,0" transform="translate(-34.929 -99.281)" fill="none" stroke="#707070" stroke-width="1"/>
        <path id="Path_8" data-name="Path 8" d="M161.624,6.715c0-.358-.015-.718.006-1.075.013-.217-.058-.3-.266-.365a2.7,2.7,0,1,1,1.705-.026c-.265.088-.351.191-.341.472.025.705,0,1.412.012,2.118,0,.192-.028.3-.253.27-.278-.034-.652.119-.813-.064-.138-.157-.044-.52-.049-.792,0-.179,0-.358,0-.537" transform="translate(-145.979 0.001)" fill="none" stroke="#707070" stroke-width="1"/>
        <path id="Path_9" data-name="Path 9" d="M2.161,181.68c0,.99-.006,1.98.005,2.97,0,.21-.06.258-.263.259a1.7,1.7,0,0,1-1.865-1.261A1.561,1.561,0,0,1,0,183.242q0-1.58,0-3.159a1.692,1.692,0,0,1,2.045-1.674c.179.035.111.154.112.239,0,1.011,0,2.022,0,3.033" transform="translate(0 -163.289)" fill="none" stroke="#707070" stroke-width="1"/>
      </g>
    </g>
    <g id="Group_13" data-name="Group 13" transform="translate(1.413 0)">
      <g id="Group_12" data-name="Group 12" clip-path="url(#clip-path)">
        <path id="Path_6-2" data-name="Path 6" d="M359.681,183.947c-.1.061-.091.179-.133.269a1.8,1.8,0,0,1-1.926.965c-.132-.033-.1-.116-.1-.191,0-.369,0-.738,0-1.107,0-1.635,0-3.269-.005-4.9,0-.224.039-.291.285-.3a1.741,1.741,0,0,1,1.88,1.283Z" transform="translate(-327.28 -163.563)" fill="#1a1a1a"/>
        <path id="Path_7-2" data-name="Path 7" d="M51.134,108.464c3.2,0,6.391.028,9.585-.011a3.327,3.327,0,0,1,3.387,3.386c-.023,3.891,0,7.782-.008,11.674a3.241,3.241,0,0,1-2.684,3.269,4.3,4.3,0,0,1-.851.047q-5.789,0-11.579,0a1.723,1.723,0,0,0-1,.306c-1.676,1.126-3.361,2.239-5.039,3.362a.647.647,0,0,1-.7.125c-.272-.136-.3-.377-.294-.643.006-.812,0-1.624,0-2.436,0-.51-.186-.7-.7-.723a3.217,3.217,0,0,1-3.082-3.185q-.018-5.979,0-11.958a3.223,3.223,0,0,1,3.225-3.208c3.248-.007,6.5,0,9.744,0m3.789,7.573a2.692,2.692,0,1,0,2.67-2.7,2.687,2.687,0,0,0-2.67,2.7m-7.585-.013a2.692,2.692,0,1,0-2.679,2.694,2.683,2.683,0,0,0,2.679-2.694m3.784,5.928a4.143,4.143,0,0,0,.944-.072,3.477,3.477,0,0,0,2.124-1.13.532.532,0,0,0-.025-.808.54.54,0,0,0-.779.114,1.782,1.782,0,0,1-.873.6c-1.341.371-2.637.447-3.711-.681a.527.527,0,0,0-.692-.042.507.507,0,0,0-.121.7,1.958,1.958,0,0,0,.334.376,4.042,4.042,0,0,0,2.8.94" transform="translate(-34.929 -99.281)" fill="#1a1a1a"/>
        <path id="Path_8-2" data-name="Path 8" d="M161.624,6.715c0-.358-.015-.718.006-1.075.013-.217-.058-.3-.266-.365a2.7,2.7,0,1,1,1.705-.026c-.265.088-.351.191-.341.472.025.705,0,1.412.012,2.118,0,.192-.028.3-.253.27-.278-.034-.652.119-.813-.064-.138-.157-.044-.52-.049-.792,0-.179,0-.358,0-.537" transform="translate(-145.979 0.001)" fill="#1a1a1a"/>
        <path id="Path_9-2" data-name="Path 9" d="M2.161,181.68c0,.99-.006,1.98.005,2.97,0,.21-.06.258-.263.259a1.7,1.7,0,0,1-1.865-1.261A1.561,1.561,0,0,1,0,183.242q0-1.58,0-3.159a1.692,1.692,0,0,1,2.045-1.674c.179.035.111.154.112.239,0,1.011,0,2.022,0,3.033" transform="translate(0 -163.289)" fill="#1a1a1a"/>
        <path id="Path_13" data-name="Path 13" d="M250.663,178.876a1.617,1.617,0,1,1-1.624,1.613,1.6,1.6,0,0,1,1.624-1.613" transform="translate(-227.977 -163.748)" fill="#1a1a1a"/>
        <path id="Path_14" data-name="Path 14" d="M97.415,178.877a1.617,1.617,0,1,1-1.628,1.609,1.6,1.6,0,0,1,1.628-1.609" transform="translate(-87.686 -163.749)" fill="#1a1a1a"/>
      </g>
    </g>
  </g>
</svg>
