<svg id="Group_38" data-name="Group 38" xmlns="http://www.w3.org/2000/svg" xmlns:xlink="http://www.w3.org/1999/xlink" width="27.438" height="22.37" viewBox="0 0 27.438 22.37">
  <defs>
    <clipPath id="clip-path">
      <rect id="Rectangle_24" data-name="Rectangle 24" width="24.679" height="22.37" fill="none" stroke="#707070" stroke-width="1"/>
    </clipPath>
    <clipPath id="clip-path-2">
      <rect id="Rectangle_24-2" data-name="Rectangle 24" width="24.679" height="22.37" fill="#1a1a1a"/>
    </clipPath>
  </defs>
  <g id="Group_28" data-name="Group 28" transform="translate(0 0)">
    <g id="Group_26" data-name="Group 26" clip-path="url(#clip-path)">
      <path id="Path_31" data-name="Path 31" d="M0,19.085v-.868a3.09,3.09,0,0,1,.149-.548c.292-.613.575-1.234.913-1.821Q5.057,8.9,9.07,1.97A3.6,3.6,0,0,1,11.983.017a3.545,3.545,0,0,1,3.579,1.875q4.308,7.43,8.588,14.877a3.672,3.672,0,0,1-1.171,5,3.751,3.751,0,0,1-2.19.6q-7.7-.009-15.4,0c-.586,0-1.173.01-1.759-.006A3.611,3.611,0,0,1,.193,19.825c-.082-.241-.13-.493-.193-.74M13.7,8.27h-.008c0-.144.007-.289,0-.432a1.354,1.354,0,0,0-2.017-1.089,1.617,1.617,0,0,0-.727,1.7c.073.943.125,1.888.183,2.833.065,1.049.118,2.1.192,3.146a.971.971,0,0,0,1.029.9,1.006,1.006,0,0,0,1-.937c.013-.184,0-.369.015-.553q.163-2.786.33-5.572m-2.726,9.4a1.372,1.372,0,0,0,1.36,1.365,1.354,1.354,0,0,0,1.346-1.348,1.354,1.354,0,1,0-2.707-.017" transform="translate(0 0)" fill="none" stroke="#707070" stroke-width="1"/>
    </g>
  </g>
  <g id="Group_27" data-name="Group 27" transform="translate(2.759 0)">
    <g id="Group_26-2" data-name="Group 26" clip-path="url(#clip-path-2)">
      <path id="Path_31-2" data-name="Path 31" d="M0,19.085v-.868a3.09,3.09,0,0,1,.149-.548c.292-.613.575-1.234.913-1.821Q5.057,8.9,9.07,1.97A3.6,3.6,0,0,1,11.983.017a3.545,3.545,0,0,1,3.579,1.875q4.308,7.43,8.588,14.877a3.672,3.672,0,0,1-1.171,5,3.751,3.751,0,0,1-2.19.6q-7.7-.009-15.4,0c-.586,0-1.173.01-1.759-.006A3.611,3.611,0,0,1,.193,19.825c-.082-.241-.13-.493-.193-.74M13.7,8.27h-.008c0-.144.007-.289,0-.432a1.354,1.354,0,0,0-2.017-1.089,1.617,1.617,0,0,0-.727,1.7c.073.943.125,1.888.183,2.833.065,1.049.118,2.1.192,3.146a.971.971,0,0,0,1.029.9,1.006,1.006,0,0,0,1-.937c.013-.184,0-.369.015-.553q.163-2.786.33-5.572m-2.726,9.4a1.372,1.372,0,0,0,1.36,1.365,1.354,1.354,0,0,0,1.346-1.348,1.354,1.354,0,1,0-2.707-.017" transform="translate(0 0)" fill="#1a1a1a"/>
    </g>
  </g>
</svg>
