<svg id="Group_37" data-name="Group 37" xmlns="http://www.w3.org/2000/svg" xmlns:xlink="http://www.w3.org/1999/xlink" width="32.139" height="30.315" viewBox="0 0 32.139 30.315">
  <defs>
    <clipPath id="clip-path">
      <rect id="Rectangle_23" data-name="Rectangle 23" width="30.039" height="30.315" fill="none" stroke="#707070" stroke-width="1"/>
    </clipPath>
    <clipPath id="clip-path-2">
      <rect id="Rectangle_23-2" data-name="Rectangle 23" width="30.039" height="30.315" fill="#1a1a1a"/>
    </clipPath>
  </defs>
  <g id="Group_25" data-name="Group 25" transform="translate(0 0)">
    <g id="Group_23" data-name="Group 23" clip-path="url(#clip-path)">
      <path id="Path_25" data-name="Path 25" d="M4.838,29.231c.106.005.184.013.263.013q6.325,0,12.65,0a3.624,3.624,0,0,0,1.946-.558q2.706-1.657,5.417-3.306,2.188-1.333,4.379-2.663a.952.952,0,1,0-.849-1.7c-3.179,1.059-6.354,2.127-9.538,3.171a4.508,4.508,0,0,1-1.31.215c-1.5.026-3,.01-4.505.01a4.062,4.062,0,0,0-1.843.414c-.336.168-.645.389-.971.579a.525.525,0,0,1-.716-.139.506.506,0,0,1,.1-.718,5.2,5.2,0,0,1,2.829-1.15c1.121-.059,2.246-.041,3.369-.053.535-.005.624-.064.719-.592a1.257,1.257,0,0,0-.012-.529,1.931,1.931,0,0,0-1.637-1.5,14.046,14.046,0,0,0-1.932-.07c-.626-.013-1.256.02-1.878-.036a5.473,5.473,0,0,1-2.9-1.22,4.9,4.9,0,0,0-3.587-.867Zm16.625-22.5c.644,0,1.257,0,1.87,0a.563.563,0,0,0,.443-.992Q21.245,3.008,18.718.268a.56.56,0,0,0-.958,0c-.5.53-.986,1.065-1.478,1.6Q14.491,3.81,12.7,5.748a.577.577,0,0,0-.162.65.554.554,0,0,0,.577.337c.219,0,.437,0,.656,0h1.253v.4q0,4,0,7.994c0,.553.171.723.735.724q2.475,0,4.95,0c.574,0,.754-.179.754-.744q0-4,0-7.994ZM3.773,23.868q0-2.864,0-5.727c0-.512-.2-.7-.7-.705q-1.178,0-2.356,0c-.507,0-.708.2-.71.7,0,.736,0,1.472,0,2.208q0,4.624,0,9.248c0,.542.179.721.709.721h2.3c.617,0,.767-.15.767-.779q0-2.834,0-5.668m3.736-12.3v.359q0,1.611,0,3.222c0,.492.195.694.682.7q1.193.007,2.386,0c.514,0,.69-.185.691-.709q0-1.611,0-3.222v-.332a2.425,2.425,0,0,1,.264-.014.556.556,0,0,0,.612-.324.581.581,0,0,0-.176-.672c-.7-.757-1.4-1.522-2.106-2.278a.553.553,0,0,0-.939,0c-.495.531-.986,1.066-1.479,1.6l-.688.745a.533.533,0,0,0-.111.607.51.51,0,0,0,.525.318c.1,0,.2,0,.339,0m21.464,0c.139,0,.246,0,.352,0a.514.514,0,0,0,.5-.308.489.489,0,0,0-.081-.581c-.758-.828-1.517-1.656-2.288-2.473a.487.487,0,0,0-.745,0c-.777.824-1.551,1.652-2.3,2.5a.607.607,0,0,0-.059.54c.067.145.283.24.453.313a1.131,1.131,0,0,0,.4.008v.364c0,1.063,0,2.127,0,3.19,0,.54.181.723.711.725q1.177,0,2.355,0c.506,0,.7-.2.7-.71q0-1.61,0-3.22v-.348" transform="translate(0 0)" fill="none" stroke="#707070" stroke-width="1"/>
      <path id="Path_26" data-name="Path 26" d="M60.7,242.852v-10.7a4.9,4.9,0,0,1,3.587.867,5.474,5.474,0,0,0,2.9,1.22c.622.056,1.252.023,1.878.036a14.036,14.036,0,0,1,1.932.07,1.931,1.931,0,0,1,1.637,1.5,1.257,1.257,0,0,1,.012.529c-.094.528-.183.587-.719.592-1.123.011-2.248-.006-3.369.053a5.2,5.2,0,0,0-2.829,1.15.506.506,0,0,0-.1.718.525.525,0,0,0,.716.138c.326-.19.635-.411.971-.579a4.063,4.063,0,0,1,1.843-.414c1.5,0,3,.016,4.505-.01a4.513,4.513,0,0,0,1.31-.215c3.184-1.044,6.359-2.112,9.538-3.171a.952.952,0,1,1,.849,1.7q-2.188,1.333-4.379,2.664-2.71,1.651-5.417,3.306a3.624,3.624,0,0,1-1.946.558q-6.325-.012-12.65,0c-.078,0-.156-.007-.263-.013" transform="translate(-55.864 -213.622)" fill="none" stroke="#707070" stroke-width="1"/>
      <path id="Path_27" data-name="Path 27" d="M165.712,6.735v.38q0,4,0,7.994c0,.565-.18.744-.754.744q-2.475,0-4.95,0c-.564,0-.735-.171-.735-.724q0-4,0-7.994v-.4H158.02c-.219,0-.437,0-.656,0a.554.554,0,0,1-.577-.337.577.577,0,0,1,.162-.65q1.8-1.934,3.582-3.877c.492-.533.982-1.068,1.478-1.6a.56.56,0,0,1,.958,0Q165.5,3,168.025,5.745a.563.563,0,0,1-.443.992c-.613-.006-1.227,0-1.87,0" transform="translate(-144.249 0)" fill="none" stroke="#707070" stroke-width="1"/>
      <path id="Path_28" data-name="Path 28" d="M3.773,225.143q0,2.834,0,5.668c0,.629-.15.779-.767.779H.71c-.53,0-.708-.18-.709-.721q0-4.624,0-9.248c0-.736,0-1.472,0-2.207,0-.5.2-.7.71-.7q1.178,0,2.356,0c.509,0,.7.193.7.705q0,2.864,0,5.727" transform="translate(0 -201.275)" fill="none" stroke="#707070" stroke-width="1"/>
      <path id="Path_29" data-name="Path 29" d="M83.651,104.41c-.141,0-.24,0-.339,0a.509.509,0,0,1-.525-.318.532.532,0,0,1,.111-.607l.688-.745q.739-.8,1.479-1.6a.553.553,0,0,1,.939,0c.705.757,1.4,1.521,2.106,2.278a.581.581,0,0,1,.177.672.556.556,0,0,1-.612.324,2.42,2.42,0,0,0-.264.014v.332q0,1.611,0,3.222c0,.524-.177.707-.691.709q-1.193.005-2.386,0c-.487,0-.681-.2-.682-.7q0-1.611,0-3.222v-.359" transform="translate(-76.142 -92.838)" fill="none" stroke="#707070" stroke-width="1"/>
      <path id="Path_30" data-name="Path 30" d="M309.725,104.361v.348q0,1.61,0,3.22c0,.51-.2.708-.7.71q-1.178.005-2.355,0c-.53,0-.71-.184-.711-.725,0-1.063,0-2.127,0-3.19v-.364a1.131,1.131,0,0,1-.4-.008c-.17-.073-.386-.168-.453-.313a.607.607,0,0,1,.059-.54c.749-.85,1.522-1.678,2.3-2.5a.487.487,0,0,1,.745,0c.771.816,1.53,1.644,2.288,2.473a.489.489,0,0,1,.081.581.514.514,0,0,1-.5.308c-.107,0-.213,0-.352,0" transform="translate(-280.752 -92.789)" fill="none" stroke="#707070" stroke-width="1"/>
    </g>
  </g>
  <g id="Group_24" data-name="Group 24" transform="translate(2.1 0)">
    <g id="Group_23-2" data-name="Group 23" clip-path="url(#clip-path-2)">
      <path id="Path_25-2" data-name="Path 25" d="M4.838,29.231c.106.005.184.013.263.013q6.325,0,12.65,0a3.624,3.624,0,0,0,1.946-.558q2.706-1.657,5.417-3.306,2.188-1.333,4.379-2.663a.952.952,0,1,0-.849-1.7c-3.179,1.059-6.354,2.127-9.538,3.171a4.508,4.508,0,0,1-1.31.215c-1.5.026-3,.01-4.505.01a4.062,4.062,0,0,0-1.843.414c-.336.168-.645.389-.971.579a.525.525,0,0,1-.716-.139.506.506,0,0,1,.1-.718,5.2,5.2,0,0,1,2.829-1.15c1.121-.059,2.246-.041,3.369-.053.535-.005.624-.064.719-.592a1.257,1.257,0,0,0-.012-.529,1.931,1.931,0,0,0-1.637-1.5,14.046,14.046,0,0,0-1.932-.07c-.626-.013-1.256.02-1.878-.036a5.473,5.473,0,0,1-2.9-1.22,4.9,4.9,0,0,0-3.587-.867Zm16.625-22.5c.644,0,1.257,0,1.87,0a.563.563,0,0,0,.443-.992Q21.245,3.008,18.718.268a.56.56,0,0,0-.958,0c-.5.53-.986,1.065-1.478,1.6Q14.491,3.81,12.7,5.748a.577.577,0,0,0-.162.65.554.554,0,0,0,.577.337c.219,0,.437,0,.656,0h1.253v.4q0,4,0,7.994c0,.553.171.723.735.724q2.475,0,4.95,0c.574,0,.754-.179.754-.744q0-4,0-7.994ZM3.773,23.868q0-2.864,0-5.727c0-.512-.2-.7-.7-.705q-1.178,0-2.356,0c-.507,0-.708.2-.71.7,0,.736,0,1.472,0,2.208q0,4.624,0,9.248c0,.542.179.721.709.721h2.3c.617,0,.767-.15.767-.779q0-2.834,0-5.668m3.736-12.3v.359q0,1.611,0,3.222c0,.492.195.694.682.7q1.193.007,2.386,0c.514,0,.69-.185.691-.709q0-1.611,0-3.222v-.332a2.425,2.425,0,0,1,.264-.014.556.556,0,0,0,.612-.324.581.581,0,0,0-.176-.672c-.7-.757-1.4-1.522-2.106-2.278a.553.553,0,0,0-.939,0c-.495.531-.986,1.066-1.479,1.6l-.688.745a.533.533,0,0,0-.111.607.51.51,0,0,0,.525.318c.1,0,.2,0,.339,0m21.464,0c.139,0,.246,0,.352,0a.514.514,0,0,0,.5-.308.489.489,0,0,0-.081-.581c-.758-.828-1.517-1.656-2.288-2.473a.487.487,0,0,0-.745,0c-.777.824-1.551,1.652-2.3,2.5a.607.607,0,0,0-.059.54c.067.145.283.24.453.313a1.131,1.131,0,0,0,.4.008v.364c0,1.063,0,2.127,0,3.19,0,.54.181.723.711.725q1.177,0,2.355,0c.506,0,.7-.2.7-.71q0-1.61,0-3.22v-.348" transform="translate(0 0)" fill="#1a1a1a"/>
      <path id="Path_26-2" data-name="Path 26" d="M60.7,242.852v-10.7a4.9,4.9,0,0,1,3.587.867,5.474,5.474,0,0,0,2.9,1.22c.622.056,1.252.023,1.878.036a14.036,14.036,0,0,1,1.932.07,1.931,1.931,0,0,1,1.637,1.5,1.257,1.257,0,0,1,.012.529c-.094.528-.183.587-.719.592-1.123.011-2.248-.006-3.369.053a5.2,5.2,0,0,0-2.829,1.15.506.506,0,0,0-.1.718.525.525,0,0,0,.716.138c.326-.19.635-.411.971-.579a4.063,4.063,0,0,1,1.843-.414c1.5,0,3,.016,4.505-.01a4.513,4.513,0,0,0,1.31-.215c3.184-1.044,6.359-2.112,9.538-3.171a.952.952,0,1,1,.849,1.7q-2.188,1.333-4.379,2.664-2.71,1.651-5.417,3.306a3.624,3.624,0,0,1-1.946.558q-6.325-.012-12.65,0c-.078,0-.156-.007-.263-.013" transform="translate(-55.864 -213.622)" fill="#1a1a1a"/>
      <path id="Path_27-2" data-name="Path 27" d="M165.712,6.735v.38q0,4,0,7.994c0,.565-.18.744-.754.744q-2.475,0-4.95,0c-.564,0-.735-.171-.735-.724q0-4,0-7.994v-.4H158.02c-.219,0-.437,0-.656,0a.554.554,0,0,1-.577-.337.577.577,0,0,1,.162-.65q1.8-1.934,3.582-3.877c.492-.533.982-1.068,1.478-1.6a.56.56,0,0,1,.958,0Q165.5,3,168.025,5.745a.563.563,0,0,1-.443.992c-.613-.006-1.227,0-1.87,0" transform="translate(-144.249 0)" fill="#1a1a1a"/>
      <path id="Path_28-2" data-name="Path 28" d="M3.773,225.143q0,2.834,0,5.668c0,.629-.15.779-.767.779H.71c-.53,0-.708-.18-.709-.721q0-4.624,0-9.248c0-.736,0-1.472,0-2.207,0-.5.2-.7.71-.7q1.178,0,2.356,0c.509,0,.7.193.7.705q0,2.864,0,5.727" transform="translate(0 -201.275)" fill="#1a1a1a"/>
      <path id="Path_29-2" data-name="Path 29" d="M83.651,104.41c-.141,0-.24,0-.339,0a.509.509,0,0,1-.525-.318.532.532,0,0,1,.111-.607l.688-.745q.739-.8,1.479-1.6a.553.553,0,0,1,.939,0c.705.757,1.4,1.521,2.106,2.278a.581.581,0,0,1,.177.672.556.556,0,0,1-.612.324,2.42,2.42,0,0,0-.264.014v.332q0,1.611,0,3.222c0,.524-.177.707-.691.709q-1.193.005-2.386,0c-.487,0-.681-.2-.682-.7q0-1.611,0-3.222v-.359" transform="translate(-76.142 -92.838)" fill="#1a1a1a"/>
      <path id="Path_30-2" data-name="Path 30" d="M309.725,104.361v.348q0,1.61,0,3.22c0,.51-.2.708-.7.71q-1.178.005-2.355,0c-.53,0-.71-.184-.711-.725,0-1.063,0-2.127,0-3.19v-.364a1.131,1.131,0,0,1-.4-.008c-.17-.073-.386-.168-.453-.313a.607.607,0,0,1,.059-.54c.749-.85,1.522-1.678,2.3-2.5a.487.487,0,0,1,.745,0c.771.816,1.53,1.644,2.288,2.473a.489.489,0,0,1,.081.581.514.514,0,0,1-.5.308c-.107,0-.213,0-.352,0" transform="translate(-280.752 -92.789)" fill="#1a1a1a"/>
    </g>
  </g>
</svg>
